<?xml version="1.0" standalone="no"?>
<!DOCTYPE svg PUBLIC "-//W3C//DTD SVG 20010904//EN"
 "http://www.w3.org/TR/2001/REC-SVG-20010904/DTD/svg10.dtd">
<svg version="1.0" xmlns="http://www.w3.org/2000/svg"
 width="500.000000pt" height="500.000000pt" viewBox="0 0 500.000000 500.000000"
 preserveAspectRatio="xMidYMid meet">
<metadata>
Created by potrace 1.14, written by Peter Selinger 2001-2017
</metadata>
<g transform="translate(0.000000,500.000000) scale(0.100000,-0.100000)"
fill="#000000" stroke="none">
<path d="M2360 4984 c-368 -32 -660 -111 -959 -260 -263 -131 -451 -265 -651
-464 -418 -416 -669 -945 -730 -1535 -26 -252 -25 -262 11 -555 68 -537 327
-1059 720 -1450 364 -361 821 -595 1354 -693 105 -19 155 -22 400 -22 245 0
295 3 400 22 444 82 832 255 1162 521 444 358 753 858 877 1418 39 179 50 273
54 494 4 232 3 243 -44 499 -91 489 -331 940 -694 1301 -384 382 -885 629
-1428 704 -112 16 -387 27 -472 20z m-2 -1660 l22 -15 0 -557 c0 -626 -2 -640
-70 -778 -65 -132 -162 -218 -309 -272 -83 -31 -265 -41 -375 -22 -262 46
-434 214 -453 442 -8 93 -3 98 111 98 50 0 96 -4 102 -8 17 -11 31 -43 38 -90
14 -93 71 -163 171 -209 75 -34 226 -45 298 -20 135 46 210 147 236 317 7 41
11 243 11 494 l0 426 -429 0 -430 0 -15 22 c-11 15 -16 45 -16 85 0 111 -45
103 563 103 457 0 525 -2 545 -16z m1457 2 c27 -19 34 -135 11 -171 l-16 -25
-403 -2 -402 -3 -3 -267 -2 -268 377 0 c442 0 413 7 413 -103 0 -115 31 -107
-412 -107 l-378 0 0 -327 c0 -389 8 -363 -116 -363 -88 0 -109 9 -119 53 -3
12 -4 370 -3 795 3 753 4 774 22 788 29 21 1003 21 1031 0z"/>
</g>
</svg>
